<?xml version="1.0" encoding="utf-8" standalone="no"?>
<!DOCTYPE svg PUBLIC "-//W3C//DTD SVG 1.1//EN" "http://www.w3.org/Graphics/SVG/1.1/DTD/svg11.dtd">
<svg style="stroke-linejoin:round; stroke:black; stroke-width:0.5pt; text-anchor:middle; fill:none" xmlns="http://www.w3.org/2000/svg" height="297mm" width="210mm" version="1.1" xmlns:xlink="http://www.w3.org/1999/xlink" font-family="Helvetica, Arial, FreeSans, Sans, sans, sans-serif" viewBox="0 0 210 297">

<g>

<circle stroke="none" cx="10.0" r="5.0" cy="287.0" fill="black" />

<circle stroke="none" cx="30.0" r="5.0" cy="287.0" fill="black" />

<circle stroke="none" cx="50.0" r="5.0" cy="287.0" fill="black" />

<circle stroke="none" cx="70.0" r="5.0" cy="287.0" fill="black" />

<circle stroke="none" cx="90.0" r="5.0" cy="287.0" fill="black" />

<circle stroke="none" cx="20.0" r="5.0" cy="277.0" fill="black" />

<circle stroke="none" cx="40.0" r="5.0" cy="277.0" fill="black" />

<circle stroke="none" cx="60.0" r="5.0" cy="277.0" fill="black" />

<circle stroke="none" cx="80.0" r="5.0" cy="277.0" fill="black" />

<circle stroke="none" cx="100.0" r="5.0" cy="277.0" fill="black" />

<circle stroke="none" cx="10.0" r="5.0" cy="267.0" fill="black" />

<circle stroke="none" cx="30.0" r="5.0" cy="267.0" fill="black" />

<circle stroke="none" cx="50.0" r="5.0" cy="267.0" fill="black" />

<circle stroke="none" cx="70.0" r="5.0" cy="267.0" fill="black" />

<circle stroke="none" cx="90.0" r="5.0" cy="267.0" fill="black" />

<circle stroke="none" cx="20.0" r="5.0" cy="257.0" fill="black" />

<circle stroke="none" cx="40.0" r="5.0" cy="257.0" fill="black" />

<circle stroke="none" cx="60.0" r="5.0" cy="257.0" fill="black" />

<circle stroke="none" cx="80.0" r="5.0" cy="257.0" fill="black" />

<circle stroke="none" cx="100.0" r="5.0" cy="257.0" fill="black" />

<circle stroke="none" cx="10.0" r="5.0" cy="247.0" fill="black" />

<circle stroke="none" cx="30.0" r="5.0" cy="247.0" fill="black" />

<circle stroke="none" cx="50.0" r="5.0" cy="247.0" fill="black" />

<circle stroke="none" cx="70.0" r="5.0" cy="247.0" fill="black" />

<circle stroke="none" cx="90.0" r="5.0" cy="247.0" fill="black" />

<circle stroke="none" cx="20.0" r="5.0" cy="237.0" fill="black" />

<circle stroke="none" cx="40.0" r="5.0" cy="237.0" fill="black" />

<circle stroke="none" cx="60.0" r="5.0" cy="237.0" fill="black" />

<circle stroke="none" cx="80.0" r="5.0" cy="237.0" fill="black" />

<circle stroke="none" cx="100.0" r="5.0" cy="237.0" fill="black" />

<circle stroke="none" cx="10.0" r="5.0" cy="227.0" fill="black" />

<circle stroke="none" cx="30.0" r="5.0" cy="227.0" fill="black" />

<circle stroke="none" cx="50.0" r="5.0" cy="227.0" fill="black" />

<circle stroke="none" cx="70.0" r="5.0" cy="227.0" fill="black" />

<circle stroke="none" cx="90.0" r="5.0" cy="227.0" fill="black" />

</g>

</svg>

