<?xml version="1.0" encoding="utf-8" standalone="no"?>
<!DOCTYPE svg PUBLIC "-//W3C//DTD SVG 1.1//EN" "http://www.w3.org/Graphics/SVG/1.1/DTD/svg11.dtd">
<svg style="stroke-linejoin:round; stroke:black; stroke-width:0.5pt; text-anchor:middle; fill:none" xmlns="http://www.w3.org/2000/svg" height="297mm" width="210mm" version="1.1" xmlns:xlink="http://www.w3.org/1999/xlink" font-family="Helvetica, Arial, FreeSans, Sans, sans, sans-serif" viewBox="0 0 210 297">

<g>

<circle stroke="none" cx="15.0" r="3.0" cy="15.0" fill="black" />

<circle stroke="none" cx="15.0" r="3.0" cy="30.0" fill="black" />

<circle stroke="none" cx="15.0" r="3.0" cy="45.0" fill="black" />

<circle stroke="none" cx="15.0" r="3.0" cy="60.0" fill="black" />

<circle stroke="none" cx="15.0" r="3.0" cy="75.0" fill="black" />

<circle stroke="none" cx="15.0" r="3.0" cy="90.0" fill="black" />

<circle stroke="none" cx="15.0" r="3.0" cy="105.0" fill="black" />

<circle stroke="none" cx="30.0" r="3.0" cy="15.0" fill="black" />

<circle stroke="none" cx="30.0" r="3.0" cy="30.0" fill="black" />

<circle stroke="none" cx="30.0" r="3.0" cy="45.0" fill="black" />

<circle stroke="none" cx="30.0" r="3.0" cy="60.0" fill="black" />

<circle stroke="none" cx="30.0" r="3.0" cy="75.0" fill="black" />

<circle stroke="none" cx="30.0" r="3.0" cy="90.0" fill="black" />

<circle stroke="none" cx="30.0" r="3.0" cy="105.0" fill="black" />

<circle stroke="none" cx="45.0" r="3.0" cy="15.0" fill="black" />

<circle stroke="none" cx="45.0" r="3.0" cy="30.0" fill="black" />

<circle stroke="none" cx="45.0" r="3.0" cy="45.0" fill="black" />

<circle stroke="none" cx="45.0" r="3.0" cy="60.0" fill="black" />

<circle stroke="none" cx="45.0" r="3.0" cy="75.0" fill="black" />

<circle stroke="none" cx="45.0" r="3.0" cy="90.0" fill="black" />

<circle stroke="none" cx="45.0" r="3.0" cy="105.0" fill="black" />

<circle stroke="none" cx="60.0" r="3.0" cy="15.0" fill="black" />

<circle stroke="none" cx="60.0" r="3.0" cy="30.0" fill="black" />

<circle stroke="none" cx="60.0" r="3.0" cy="45.0" fill="black" />

<circle stroke="none" cx="60.0" r="3.0" cy="60.0" fill="black" />

<circle stroke="none" cx="60.0" r="3.0" cy="75.0" fill="black" />

<circle stroke="none" cx="60.0" r="3.0" cy="90.0" fill="black" />

<circle stroke="none" cx="60.0" r="3.0" cy="105.0" fill="black" />

<circle stroke="none" cx="75.0" r="3.0" cy="15.0" fill="black" />

<circle stroke="none" cx="75.0" r="3.0" cy="30.0" fill="black" />

<circle stroke="none" cx="75.0" r="3.0" cy="45.0" fill="black" />

<circle stroke="none" cx="75.0" r="3.0" cy="60.0" fill="black" />

<circle stroke="none" cx="75.0" r="3.0" cy="75.0" fill="black" />

<circle stroke="none" cx="75.0" r="3.0" cy="90.0" fill="black" />

<circle stroke="none" cx="75.0" r="3.0" cy="105.0" fill="black" />

</g>

</svg>

