<?xml version="1.0" encoding="utf-8" standalone="no"?>
<!DOCTYPE svg PUBLIC "-//W3C//DTD SVG 1.1//EN" "http://www.w3.org/Graphics/SVG/1.1/DTD/svg11.dtd">
<svg style="stroke-linejoin:round; stroke:black; stroke-width:0.5pt; text-anchor:middle; fill:none" xmlns="http://www.w3.org/2000/svg" height="297mm" width="210mm" version="1.1" xmlns:xlink="http://www.w3.org/1999/xlink" font-family="Helvetica, Arial, FreeSans, Sans, sans, sans-serif" viewBox="0 0 210 297">

<g>

<rect width="1.0" stroke="none" y="144.0" x="102.0" fill="black" height="1.0" />

<rect width="1.0" stroke="none" y="146.0" x="102.0" fill="black" height="1.0" />

<rect width="1.0" stroke="none" y="148.0" x="102.0" fill="black" height="1.0" />

<rect width="1.0" stroke="none" y="150.0" x="102.0" fill="black" height="1.0" />

<rect width="1.0" stroke="none" y="152.0" x="102.0" fill="black" height="1.0" />

<rect width="1.0" stroke="none" y="145.0" x="103.0" fill="black" height="1.0" />

<rect width="1.0" stroke="none" y="147.0" x="103.0" fill="black" height="1.0" />

<rect width="1.0" stroke="none" y="149.0" x="103.0" fill="black" height="1.0" />

<rect width="1.0" stroke="none" y="151.0" x="103.0" fill="black" height="1.0" />

<rect width="1.0" stroke="none" y="144.0" x="104.0" fill="black" height="1.0" />

<rect width="1.0" stroke="none" y="146.0" x="104.0" fill="black" height="1.0" />

<rect width="1.0" stroke="none" y="148.0" x="104.0" fill="black" height="1.0" />

<rect width="1.0" stroke="none" y="150.0" x="104.0" fill="black" height="1.0" />

<rect width="1.0" stroke="none" y="152.0" x="104.0" fill="black" height="1.0" />

<rect width="1.0" stroke="none" y="145.0" x="105.0" fill="black" height="1.0" />

<rect width="1.0" stroke="none" y="147.0" x="105.0" fill="black" height="1.0" />

<rect width="1.0" stroke="none" y="149.0" x="105.0" fill="black" height="1.0" />

<rect width="1.0" stroke="none" y="151.0" x="105.0" fill="black" height="1.0" />

<rect width="1.0" stroke="none" y="144.0" x="106.0" fill="black" height="1.0" />

<rect width="1.0" stroke="none" y="146.0" x="106.0" fill="black" height="1.0" />

<rect width="1.0" stroke="none" y="148.0" x="106.0" fill="black" height="1.0" />

<rect width="1.0" stroke="none" y="150.0" x="106.0" fill="black" height="1.0" />

<rect width="1.0" stroke="none" y="152.0" x="106.0" fill="black" height="1.0" />

<rect width="1.0" stroke="none" y="145.0" x="107.0" fill="black" height="1.0" />

<rect width="1.0" stroke="none" y="147.0" x="107.0" fill="black" height="1.0" />

<rect width="1.0" stroke="none" y="149.0" x="107.0" fill="black" height="1.0" />

<rect width="1.0" stroke="none" y="151.0" x="107.0" fill="black" height="1.0" />

</g>

</svg>

