<?xml version="1.0" encoding="utf-8" standalone="no"?>
<!DOCTYPE svg PUBLIC "-//W3C//DTD SVG 1.1//EN" "http://www.w3.org/Graphics/SVG/1.1/DTD/svg11.dtd">
<svg style="stroke-linejoin:round; stroke:black; stroke-width:0.5pt; text-anchor:middle; fill:none" xmlns="http://www.w3.org/2000/svg" height="297inches" width="210inches" version="1.1" xmlns:xlink="http://www.w3.org/1999/xlink" font-family="Helvetica, Arial, FreeSans, Sans, sans, sans-serif" viewBox="0 0 210 297">

<g>

<circle stroke="none" cx="1.0" r="0.2" cy="1.0" fill="black" />

<circle stroke="none" cx="1.0" r="0.2" cy="2.0" fill="black" />

<circle stroke="none" cx="1.0" r="0.2" cy="3.0" fill="black" />

<circle stroke="none" cx="1.0" r="0.2" cy="4.0" fill="black" />

<circle stroke="none" cx="1.0" r="0.2" cy="5.0" fill="black" />

<circle stroke="none" cx="1.0" r="0.2" cy="6.0" fill="black" />

<circle stroke="none" cx="1.0" r="0.2" cy="7.0" fill="black" />

<circle stroke="none" cx="1.0" r="0.2" cy="8.0" fill="black" />

<circle stroke="none" cx="1.0" r="0.2" cy="9.0" fill="black" />

<circle stroke="none" cx="2.0" r="0.2" cy="1.0" fill="black" />

<circle stroke="none" cx="2.0" r="0.2" cy="2.0" fill="black" />

<circle stroke="none" cx="2.0" r="0.2" cy="3.0" fill="black" />

<circle stroke="none" cx="2.0" r="0.2" cy="4.0" fill="black" />

<circle stroke="none" cx="2.0" r="0.2" cy="5.0" fill="black" />

<circle stroke="none" cx="2.0" r="0.2" cy="6.0" fill="black" />

<circle stroke="none" cx="2.0" r="0.2" cy="7.0" fill="black" />

<circle stroke="none" cx="2.0" r="0.2" cy="8.0" fill="black" />

<circle stroke="none" cx="2.0" r="0.2" cy="9.0" fill="black" />

<circle stroke="none" cx="3.0" r="0.2" cy="1.0" fill="black" />

<circle stroke="none" cx="3.0" r="0.2" cy="2.0" fill="black" />

<circle stroke="none" cx="3.0" r="0.2" cy="3.0" fill="black" />

<circle stroke="none" cx="3.0" r="0.2" cy="4.0" fill="black" />

<circle stroke="none" cx="3.0" r="0.2" cy="5.0" fill="black" />

<circle stroke="none" cx="3.0" r="0.2" cy="6.0" fill="black" />

<circle stroke="none" cx="3.0" r="0.2" cy="7.0" fill="black" />

<circle stroke="none" cx="3.0" r="0.2" cy="8.0" fill="black" />

<circle stroke="none" cx="3.0" r="0.2" cy="9.0" fill="black" />

<circle stroke="none" cx="4.0" r="0.2" cy="1.0" fill="black" />

<circle stroke="none" cx="4.0" r="0.2" cy="2.0" fill="black" />

<circle stroke="none" cx="4.0" r="0.2" cy="3.0" fill="black" />

<circle stroke="none" cx="4.0" r="0.2" cy="4.0" fill="black" />

<circle stroke="none" cx="4.0" r="0.2" cy="5.0" fill="black" />

<circle stroke="none" cx="4.0" r="0.2" cy="6.0" fill="black" />

<circle stroke="none" cx="4.0" r="0.2" cy="7.0" fill="black" />

<circle stroke="none" cx="4.0" r="0.2" cy="8.0" fill="black" />

<circle stroke="none" cx="4.0" r="0.2" cy="9.0" fill="black" />

<circle stroke="none" cx="5.0" r="0.2" cy="1.0" fill="black" />

<circle stroke="none" cx="5.0" r="0.2" cy="2.0" fill="black" />

<circle stroke="none" cx="5.0" r="0.2" cy="3.0" fill="black" />

<circle stroke="none" cx="5.0" r="0.2" cy="4.0" fill="black" />

<circle stroke="none" cx="5.0" r="0.2" cy="5.0" fill="black" />

<circle stroke="none" cx="5.0" r="0.2" cy="6.0" fill="black" />

<circle stroke="none" cx="5.0" r="0.2" cy="7.0" fill="black" />

<circle stroke="none" cx="5.0" r="0.2" cy="8.0" fill="black" />

<circle stroke="none" cx="5.0" r="0.2" cy="9.0" fill="black" />

<circle stroke="none" cx="6.0" r="0.2" cy="1.0" fill="black" />

<circle stroke="none" cx="6.0" r="0.2" cy="2.0" fill="black" />

<circle stroke="none" cx="6.0" r="0.2" cy="3.0" fill="black" />

<circle stroke="none" cx="6.0" r="0.2" cy="4.0" fill="black" />

<circle stroke="none" cx="6.0" r="0.2" cy="5.0" fill="black" />

<circle stroke="none" cx="6.0" r="0.2" cy="6.0" fill="black" />

<circle stroke="none" cx="6.0" r="0.2" cy="7.0" fill="black" />

<circle stroke="none" cx="6.0" r="0.2" cy="8.0" fill="black" />

<circle stroke="none" cx="6.0" r="0.2" cy="9.0" fill="black" />

</g>

</svg>

